<svg width="14" height="15" viewBox="0 0 14 15" fill="none" xmlns="http://www.w3.org/2000/svg">
<g clip-path="url(#clip0_138_1144)">
<path d="M12.0248 3.31117H10.3253C10.2222 3.31117 10.1233 3.35214 10.0503 3.42507C9.97741 3.498 9.93644 3.59692 9.93644 3.70006C9.93644 3.8032 9.97741 3.90211 10.0503 3.97504C10.1233 4.04798 10.2222 4.08895 10.3253 4.08895H12.0559V11.8667H1.94477V4.08895H3.6481C3.75124 4.08895 3.85016 4.04798 3.92309 3.97504C3.99602 3.90211 4.03699 3.8032 4.03699 3.70006C4.03699 3.59692 3.99602 3.498 3.92309 3.42507C3.85016 3.35214 3.75124 3.31117 3.6481 3.31117H1.97588C1.87115 3.30698 1.76666 3.32399 1.66868 3.3612C1.57069 3.39841 1.48124 3.45503 1.40569 3.52768C1.33013 3.60032 1.27005 3.68749 1.22903 3.78394C1.18801 3.88039 1.16691 3.98414 1.16699 4.08895V11.8667C1.16691 11.9715 1.18801 12.0753 1.22903 12.1717C1.27005 12.2682 1.33013 12.3554 1.40569 12.428C1.48124 12.5006 1.57069 12.5573 1.66868 12.5945C1.76666 12.6317 1.87115 12.6487 1.97588 12.6445H12.0248C12.1295 12.6487 12.234 12.6317 12.332 12.5945C12.43 12.5573 12.5194 12.5006 12.595 12.428C12.6705 12.3554 12.7306 12.2682 12.7716 12.1717C12.8126 12.0753 12.8337 11.9715 12.8337 11.8667V4.08895C12.8337 3.98414 12.8126 3.88039 12.7716 3.78394C12.7306 3.68749 12.6705 3.60032 12.595 3.52768C12.5194 3.45503 12.43 3.39841 12.332 3.3612C12.234 3.32399 12.1295 3.30698 12.0248 3.31117Z" fill="#DCDEDF"/>
<path d="M4.00558 7.53837L6.7278 10.2178C6.80049 10.2891 6.89823 10.329 7.00002 10.329C7.10181 10.329 7.19955 10.2891 7.27224 10.2178L9.99447 7.53837C10.0682 7.46617 10.1103 7.36763 10.1113 7.26444C10.1124 7.16124 10.0725 7.06183 10.0003 6.98809C9.9281 6.91434 9.82957 6.8723 9.72637 6.87121C9.62317 6.87011 9.52377 6.91006 9.45002 6.98225L7.38891 9.00837V1.75559C7.38891 1.65245 7.34794 1.55353 7.27501 1.4806C7.20208 1.40767 7.10316 1.3667 7.00002 1.3667C6.89688 1.3667 6.79797 1.40767 6.72503 1.4806C6.6521 1.55353 6.61113 1.65245 6.61113 1.75559V9.00837L4.55002 6.98225C4.47628 6.91006 4.37687 6.87011 4.27367 6.87121C4.17048 6.8723 4.07194 6.91434 3.99974 6.98809C3.92755 7.06183 3.8876 7.16124 3.88869 7.26444C3.88979 7.36763 3.93183 7.46617 4.00558 7.53837Z" fill="#DCDEDF"/>
</g>
<defs>
<clipPath id="clip0_138_1144">
<rect width="14" height="14" fill="white" transform="translate(0 0.200195)"/>
</clipPath>
</defs>
</svg>
