<svg width="13" height="13" viewBox="0 0 13 13" fill="none" xmlns="http://www.w3.org/2000/svg">
<g clip-path="url(#clip0_138_839)">
<path d="M4.58091 1.19477C3.38193 1.6107 2.34792 2.40017 1.63078 3.4472C0.913635 4.49424 0.551154 5.74365 0.596576 7.01192C0.641999 8.28019 1.09293 9.50047 1.88314 10.4935C2.67335 11.4866 3.76118 12.2 4.98685 12.5291C5.98053 12.7855 7.02161 12.7968 8.0206 12.562C8.92559 12.3587 9.76227 11.9239 10.4487 11.3001C11.1632 10.631 11.6818 9.7799 11.9487 8.8382C12.2388 7.81413 12.2904 6.73721 12.0997 5.69008H6.51966V8.00477H9.75122C9.68664 8.37394 9.54824 8.72629 9.3443 9.04073C9.14037 9.35517 8.87509 9.62524 8.56435 9.83477C8.16979 10.0959 7.72494 10.2715 7.25841 10.3504C6.79055 10.4374 6.31065 10.4374 5.84279 10.3504C5.36855 10.2525 4.91995 10.0567 4.5256 9.7757C3.89199 9.32719 3.41623 8.69001 3.16622 7.95508C2.91206 7.20637 2.91206 6.39472 3.16622 5.64601C3.34419 5.12122 3.63838 4.64339 4.02685 4.2482C4.4714 3.78765 5.03422 3.45845 5.65356 3.29671C6.27289 3.13497 6.92481 3.14695 7.53779 3.33133C8.01666 3.47826 8.45456 3.73509 8.81654 4.08133C9.18091 3.71883 9.54466 3.35539 9.90779 2.99102C10.0953 2.79508 10.2997 2.60852 10.4843 2.40789C9.93172 1.89369 9.28309 1.49355 8.5756 1.23039C7.2872 0.762568 5.87745 0.749996 4.58091 1.19477Z" fill="white"/>
<path d="M4.58074 1.19522C5.87718 0.750149 7.28692 0.76239 8.57543 1.22991C9.28305 1.49486 9.93138 1.89692 10.4832 2.41303C10.2957 2.61366 10.0979 2.80116 9.90668 2.99616C9.54293 3.35928 9.17949 3.72116 8.81637 4.08178C8.45439 3.73554 8.01649 3.47871 7.53762 3.33178C6.92484 3.14676 6.27295 3.13409 5.65345 3.29517C5.03395 3.45624 4.47078 3.78484 4.02574 4.24491C3.63727 4.6401 3.34308 5.11792 3.16512 5.64272L1.22168 4.13803C1.91731 2.75856 3.12176 1.70337 4.58074 1.19522Z" fill="#E33629"/>
<path d="M0.706091 5.62832C0.810472 5.11061 0.983896 4.60925 1.22172 4.1377L3.16515 5.64613C2.91099 6.39484 2.91099 7.20649 3.16515 7.9552C2.51765 8.4552 1.86984 8.9577 1.22172 9.4627C0.626545 8.27799 0.445028 6.92817 0.706091 5.62832Z" fill="#F8BD00"/>
<path d="M6.51897 5.68945H12.099C12.2897 6.73658 12.2381 7.8135 11.948 8.83758C11.6811 9.77928 11.1625 10.6304 10.448 11.2995C9.82085 10.8101 9.19085 10.3245 8.56366 9.83508C8.87461 9.62534 9.14001 9.35498 9.34395 9.0402C9.54789 8.72543 9.68618 8.37271 9.75053 8.0032H6.51897C6.51803 7.23258 6.51897 6.46102 6.51897 5.68945Z" fill="#587DBD"/>
<path d="M1.2207 9.46258C1.86883 8.96258 2.51664 8.46008 3.16414 7.95508C3.41465 8.69026 3.89108 9.32748 4.52539 9.7757C4.92097 10.0554 5.37054 10.2496 5.84539 10.3457C6.31325 10.4327 6.79315 10.4327 7.26102 10.3457C7.72754 10.2668 8.17239 10.0912 8.56695 9.83008C9.19414 10.3195 9.82414 10.8051 10.4513 11.2945C9.76498 11.9186 8.92828 12.3537 8.0232 12.5573C7.02421 12.7921 5.98313 12.7809 4.98945 12.5245C4.20355 12.3146 3.46946 11.9447 2.8332 11.4379C2.15982 10.9032 1.6098 10.2294 1.2207 9.46258Z" fill="#319F43"/>
</g>
<defs>
<clipPath id="clip0_138_839">
<rect width="12" height="12" fill="white" transform="translate(0.400391 0.800293)"/>
</clipPath>
</defs>
</svg>
