<svg width="46" height="25" viewBox="0 0 46 25" fill="none" xmlns="http://www.w3.org/2000/svg">
<path d="M0 0.200195H46V24.2002H0V0.200195Z" fill="#23262E"/>
<g clip-path="url(#clip0_138_1137)">
<path d="M30 17.847L29.8403 17.703C29.3871 17.2906 28.9905 16.8177 28.6611 16.297C28.3013 15.5785 28.0857 14.7937 28.0268 13.9889V11.6184C28.03 10.3542 27.581 9.13242 26.7644 8.18253C25.9477 7.23264 24.8196 6.62004 23.5919 6.45984V5.84081C23.5919 5.67091 23.5259 5.50797 23.4082 5.38783C23.2906 5.26769 23.1311 5.2002 22.9648 5.2002C22.7984 5.2002 22.6389 5.26769 22.5213 5.38783C22.4037 5.50797 22.3376 5.67091 22.3376 5.84081V6.46943C21.1209 6.64119 20.0064 7.25749 19.2005 8.20419C18.3946 9.15089 17.9519 10.3638 17.9544 11.6184V13.9889C17.8955 14.7937 17.6799 15.5785 17.3201 16.297C16.9964 16.8164 16.6061 17.2893 16.1597 17.703L16 17.847V19.2002H30V17.847Z" fill="#D9D9D9"/>
<path d="M21.9365 20.6445C21.9877 21.0495 22.1709 21.4205 22.4524 21.6891C22.7338 21.9576 23.0945 22.1056 23.4678 22.1056C23.8411 22.1056 24.2017 21.9576 24.4832 21.6891C24.7646 21.4205 24.9479 21.0495 24.999 20.6445H21.9365Z" fill="#D9D9D9"/>
</g>
<defs>
<clipPath id="clip0_138_1137">
<rect width="21" height="23" fill="white" transform="translate(13 0.200195)"/>
</clipPath>
</defs>
</svg>
